<svg version="1.1" xmlns="http://www.w3.org/2000/svg" viewBox="0 0 341.1573054075241 293.5857780591957" width="341.1573054075241" height="293.5857780591957"><!-- svg-source:excalidraw --><metadata></metadata><defs><style class="style-fonts">
      </style></defs><rect x="0" y="0" width="341.1573054075241" height="293.5857780591957" fill="#ffffff"></rect><g stroke-linecap="round"><g transform="translate(45.11582544259727 11.732825750485063) rotate(0 0.439370338182826 129.40388433411718)"><path d="M0.86 -0.45 C1.19 42.8, 0.94 217.05, 0.89 260.54 M-0.15 -1.73 C0.2 41.68, 0.37 215.35, 0.41 258.7" stroke="#1e1e1e" stroke-width="2" fill="none"></path></g></g><mask></mask><g stroke-linecap="round"><g transform="translate(14.715831546112895 281.3328165952116) rotate(0 157.83148854241708 -3.462321420386445)"><path d="M0.45 -0.36 C53.01 -1.3, 263.84 -5.67, 316.44 -6.56 M-0.78 -1.6 C51.5 -2.26, 262.08 -4.09, 315.31 -5.11" stroke="#1e1e1e" stroke-width="2" fill="none"></path></g></g><mask></mask><g stroke-linecap="round"><g transform="translate(13.11582544259727 32.532828802242875) rotate(0 151.3202009361237 -1.306945989653471)"><path d="M-0.84 0.86 C49.74 0.39, 252.62 -2.94, 303.48 -3.47 M0.92 0.26 C51.37 -0.03, 252.15 -2.3, 302.68 -2.5" stroke="#1e1e1e" stroke-width="2" fill="none"></path></g></g><mask></mask><g stroke-linecap="round"><g transform="translate(41.91582849435508 222.1328349057585) rotate(0 -15.132662618001916 31.007863512989132)"><path d="M-0.36 1.05 C-5.62 11.12, -26.79 50.24, -31.92 60.5 M1.65 0.56 C-3.18 10.73, -23.99 51.42, -29.58 61.45" stroke="#1e1e1e" stroke-width="2" fill="none"></path></g></g><mask></mask><g stroke-linecap="round"><g transform="translate(44.31582239083946 222.1328349057585) rotate(0 24.04561565332115 27.39121794365346)"><path d="M-0.89 -0.48 C7.43 8.56, 40.63 46.02, 48.98 55.36 M0.84 -1.78 C9.11 7.93, 40.15 46.82, 48.13 56.57" stroke="#1e1e1e" stroke-width="2" fill="none"></path></g></g><mask></mask><g stroke-linecap="round"><g transform="translate(49.11582544259727 84.53281354345381) rotate(0 24.614653204623608 -26.665155036095534)"><path d="M1.08 -0.56 C8.78 -9.41, 39.2 -44.43, 46.9 -53.18 M0.19 1.75 C8.18 -7.45, 40.77 -45.6, 49.04 -55.08" stroke="#1e1e1e" stroke-width="2" fill="none"></path></g></g><mask></mask></svg>