<svg version="1.1" xmlns="http://www.w3.org/2000/svg" viewBox="0 0 341.1573054075241 293.5857780591957" width="341.1573054075241" height="293.5857780591957"><!-- svg-source:excalidraw --><metadata></metadata><defs><style class="style-fonts">
      </style></defs><rect x="0" y="0" width="341.1573054075241" height="293.5857780591957" fill="#ffffff"></rect><g stroke-linecap="round"><g transform="translate(45.11582544259727 11.732825750485063) rotate(0 0.439370338182826 129.40388433411718)"><path d="M0.86 -0.45 C1.19 42.8, 0.94 217.05, 0.89 260.54 M-0.15 -1.73 C0.2 41.68, 0.37 215.35, 0.41 258.7" stroke="#1e1e1e" stroke-width="2" fill="none"></path></g></g><mask></mask><g stroke-linecap="round"><g transform="translate(14.715831546112895 281.3328165952116) rotate(0 157.83148854241708 -3.462321420386445)"><path d="M0.45 -0.36 C53.01 -1.3, 263.84 -5.67, 316.44 -6.56 M-0.78 -1.6 C51.5 -2.26, 262.08 -4.09, 315.31 -5.11" stroke="#1e1e1e" stroke-width="2" fill="none"></path></g></g><mask></mask><g stroke-linecap="round"><g transform="translate(13.11582544259727 32.532828802242875) rotate(0 151.3202009361237 -1.306945989653471)"><path d="M-0.84 0.86 C49.74 0.39, 252.62 -2.94, 303.48 -3.47 M0.92 0.26 C51.37 -0.03, 252.15 -2.3, 302.68 -2.5" stroke="#1e1e1e" stroke-width="2" fill="none"></path></g></g><mask></mask><g stroke-linecap="round"><g transform="translate(41.91582849435508 222.1328349057585) rotate(0 -15.132662618001916 31.007863512989132)"><path d="M-0.36 1.05 C-5.62 11.12, -26.79 50.24, -31.92 60.5 M1.65 0.56 C-3.18 10.73, -23.99 51.42, -29.58 61.45" stroke="#1e1e1e" stroke-width="2" fill="none"></path></g></g><mask></mask><g stroke-linecap="round"><g transform="translate(44.31582239083946 222.1328349057585) rotate(0 24.04561565332115 27.39121794365346)"><path d="M-0.89 -0.48 C7.43 8.56, 40.63 46.02, 48.98 55.36 M0.84 -1.78 C9.11 7.93, 40.15 46.82, 48.13 56.57" stroke="#1e1e1e" stroke-width="2" fill="none"></path></g></g><mask></mask><g stroke-linecap="round"><g transform="translate(49.11582544259727 84.53281354345381) rotate(0 24.614653204623608 -26.665155036095534)"><path d="M1.08 -0.56 C8.78 -9.41, 39.2 -44.43, 46.9 -53.18 M0.19 1.75 C8.18 -7.45, 40.77 -45.6, 49.04 -55.08" stroke="#1e1e1e" stroke-width="2" fill="none"></path></g></g><mask></mask><g stroke-linecap="round"><g transform="translate(228.31582239083946 31.732825750485063) rotate(0 0.696050126927446 19.74543366644299)"><path d="M0.34 -0.53 C0.65 6.05, 1.37 32.64, 1.54 39.28 M-0.14 0.39 C0.12 7.09, 0.91 33.43, 1.07 40.02" stroke="#1e1e1e" stroke-width="2" fill="none"></path></g></g><mask></mask><g stroke-linecap="round" transform="translate(209.91582849435508 72.53281354345381) rotate(0 22.800003051757812 24.00000762939453)"><path d="M21.06 -0.07 C25.64 -0.66, 32.44 1.62, 36.42 4.79 C40.4 7.96, 43.75 13.96, 44.91 18.98 C46.08 24, 45.65 30.34, 43.42 34.92 C41.19 39.51, 36.1 44.49, 31.53 46.48 C26.96 48.48, 20.64 48.47, 16 46.92 C11.37 45.37, 6.37 41.42, 3.72 37.16 C1.07 32.91, -0.41 26.47, 0.11 21.42 C0.64 16.36, 3 10.34, 6.86 6.82 C10.71 3.31, 20.34 1.43, 23.25 0.32 C26.17 -0.79, 24.46 -0.24, 24.35 0.17 M28.1 0.96 C32.76 1.73, 38.29 5.15, 41.3 9.15 C44.3 13.15, 46.48 19.94, 46.13 24.96 C45.78 29.98, 42.63 35.54, 39.22 39.27 C35.81 43, 30.27 46.46, 25.65 47.32 C21.03 48.18, 15.55 47.11, 11.5 44.43 C7.45 41.75, 2.89 36.26, 1.35 31.25 C-0.18 26.25, 0.55 19.16, 2.27 14.4 C3.99 9.64, 7.42 5.02, 11.68 2.69 C15.94 0.35, 25.24 0.59, 27.83 0.39 C30.41 0.18, 27.44 0.96, 27.18 1.46" stroke="#1e1e1e" stroke-width="2" fill="none"></path></g><g stroke-linecap="round"><g transform="translate(232.31582239083946 122.1328349057585) rotate(0 1.099946786225786 24.00100687758531)"><path d="M0.47 -0.51 C0.8 7.5, 1.79 39.81, 2.15 47.88 M0.05 0.42 C0.27 8.52, 1.19 40.5, 1.6 48.51" stroke="#1e1e1e" stroke-width="2" fill="none"></path></g></g><mask></mask><g stroke-linecap="round"><g transform="translate(232.31582239083946 121.33281659521163) rotate(0 -10.644797737300394 12.146527266427881)"><path d="M-0.06 0.94 C-3.62 4.82, -17.1 19.1, -20.46 22.66 M-1.55 0.38 C-5.32 4.48, -18.04 20.13, -21.23 23.91" stroke="#1e1e1e" stroke-width="2" fill="none"></path></g></g><mask></mask><g stroke-linecap="round"><g transform="translate(233.91582849435508 120.53282880224288) rotate(0 12.012725162208085 10.019346166774639)"><path d="M0.98 -0.33 C5.08 3.12, 20.14 16.98, 23.99 20.59 M0.04 -1.56 C4.03 2.02, 19.15 17.58, 23.04 21.59" stroke="#1e1e1e" stroke-width="2" fill="none"></path></g></g><mask></mask><g stroke-linecap="round"><g transform="translate(233.91582849435508 171.732810491696) rotate(0 -11.122589941695338 13.8091705133766)"><path d="M1.15 0.09 C-2.76 4.64, -19.58 22.64, -23.4 27.34 M0.3 -0.91 C-3.25 3.78, -17.46 23.42, -21.21 28.53" stroke="#1e1e1e" stroke-width="2" fill="none"></path></g></g><mask></mask><g stroke-linecap="round"><g transform="translate(233.91582849435508 170.1328349057585) rotate(0 13.93654092714192 15.015784463509917)"><path d="M-0.11 0.84 C4.61 5.58, 24.64 23.79, 29.5 28.17 M-1.63 0.23 C2.9 5.22, 23.91 25.17, 28.93 29.8" stroke="#1e1e1e" stroke-width="2" fill="none"></path></g></g><mask></mask></svg>